<svg width="482" height="482" viewBox="0 0 482 482" fill="none" xmlns="http://www.w3.org/2000/svg">
<rect width="482" height="482" rx="88" fill="black"/>
<path d="M229.64 440.713L181.205 413.631L181.226 413.596L265.777 276.201L305.106 298.225L229.64 440.713ZM121.179 103.196L198.228 245.155L159.952 267.701L73.4033 131.546L121.179 103.196ZM177.093 183.778L252.031 41.2898L299.943 68.8911L299.917 68.9327L215.369 206.324L177.093 183.778ZM408.796 349.396L360.356 377.828H360.007L282.387 236.844L321.193 213.77L408.796 349.396ZM62.2092 275.607L223.171 280.357L224.22 324.927L62.2092 331.787V275.921V275.607ZM257.976 157.073L419.994 150.213L420.519 205.87H420.204H420.201L257.976 202.171V157.073Z" fill="white" stroke="white" stroke-width="0.418333"/>
</svg>
